<svg height="100%" width="100%" viewBox="0 0 300 300"  preserveAspectRatio="none" xmlns="http://www.w3.org/2000/svg">
<ellipse cx="173.283" cy="3.5" rx="2.86757" ry="3.5" fill="#CAD819"/>
<ellipse cx="173.283" cy="24.5" rx="2.86757" ry="3.5" fill="#CAD819"/>
<ellipse cx="173.283" cy="45.5" rx="2.86757" ry="3.5" fill="#CAD819"/>
<ellipse cx="173.283" cy="66.5" rx="2.86757" ry="3.5" fill="#CAD819"/>
<ellipse cx="173.283" cy="87.5" rx="2.86757" ry="3.5" fill="#CAD819"/>
<ellipse cx="173.283" cy="108.5" rx="2.86757" ry="3.5" fill="#CAD819"/>
<ellipse cx="173.283" cy="129.5" rx="2.86757" ry="3.5" fill="#CAD819"/>
<ellipse cx="173.283" cy="150.5" rx="2.86757" ry="3.5" fill="#CAD819"/>
<ellipse cx="190.489" cy="3.5" rx="2.86757" ry="3.5" fill="#CAD819"/>
<ellipse cx="190.489" cy="24.5" rx="2.86757" ry="3.5" fill="#CAD819"/>
<ellipse cx="190.489" cy="45.5" rx="2.86757" ry="3.5" fill="#CAD819"/>
<ellipse cx="190.489" cy="66.5" rx="2.86757" ry="3.5" fill="#CAD819"/>
<ellipse cx="190.489" cy="87.5" rx="2.86757" ry="3.5" fill="#CAD819"/>
<ellipse cx="190.489" cy="108.5" rx="2.86757" ry="3.5" fill="#CAD819"/>
<ellipse cx="190.489" cy="129.5" rx="2.86757" ry="3.5" fill="#CAD819"/>
<ellipse cx="190.489" cy="150.5" rx="2.86757" ry="3.5" fill="#CAD819"/>
<ellipse cx="207.694" cy="3.5" rx="2.86757" ry="3.5" fill="#CAD819"/>
<ellipse cx="207.694" cy="24.5" rx="2.86757" ry="3.5" fill="#CAD819"/>
<ellipse cx="207.694" cy="45.5" rx="2.86757" ry="3.5" fill="#CAD819"/>
<ellipse cx="207.694" cy="66.5" rx="2.86757" ry="3.5" fill="#CAD819"/>
<ellipse cx="207.694" cy="87.5" rx="2.86757" ry="3.5" fill="#CAD819"/>
<ellipse cx="207.694" cy="108.5" rx="2.86757" ry="3.5" fill="#CAD819"/>
<ellipse cx="207.694" cy="129.5" rx="2.86757" ry="3.5" fill="#CAD819"/>
<ellipse cx="207.694" cy="150.5" rx="2.86757" ry="3.5" fill="#CAD819"/>
<ellipse cx="224.9" cy="3.5" rx="2.86757" ry="3.5" fill="#CAD819"/>
<ellipse cx="224.9" cy="24.5" rx="2.86757" ry="3.5" fill="#CAD819"/>
<ellipse cx="224.9" cy="45.5" rx="2.86757" ry="3.5" fill="#CAD819"/>
<ellipse cx="224.9" cy="66.5" rx="2.86757" ry="3.5" fill="#CAD819"/>
<ellipse cx="224.9" cy="87.5" rx="2.86757" ry="3.5" fill="#CAD819"/>
<ellipse cx="224.9" cy="108.5" rx="2.86757" ry="3.5" fill="#CAD819"/>
<ellipse cx="224.9" cy="129.5" rx="2.86757" ry="3.5" fill="#CAD819"/>
<ellipse cx="224.9" cy="150.5" rx="2.86757" ry="3.5" fill="#CAD819"/>
<ellipse cx="242.105" cy="3.5" rx="2.86757" ry="3.5" fill="#CAD819"/>
<ellipse cx="242.105" cy="24.5" rx="2.86757" ry="3.5" fill="#CAD819"/>
<ellipse cx="242.105" cy="45.5" rx="2.86757" ry="3.5" fill="#CAD819"/>
<ellipse cx="242.105" cy="66.5" rx="2.86757" ry="3.5" fill="#CAD819"/>
<ellipse cx="242.105" cy="87.5" rx="2.86757" ry="3.5" fill="#CAD819"/>
<ellipse cx="242.105" cy="108.5" rx="2.86757" ry="3.5" fill="#CAD819"/>
<ellipse cx="242.105" cy="129.5" rx="2.86757" ry="3.5" fill="#CAD819"/>
<ellipse cx="242.105" cy="150.5" rx="2.86757" ry="3.5" fill="#CAD819"/>
<ellipse cx="259.311" cy="3.5" rx="2.86757" ry="3.5" fill="#CAD819"/>
<ellipse cx="259.311" cy="24.5" rx="2.86757" ry="3.5" fill="#CAD819"/>
<ellipse cx="259.311" cy="45.5" rx="2.86757" ry="3.5" fill="#CAD819"/>
<ellipse cx="259.311" cy="66.5" rx="2.86757" ry="3.5" fill="#CAD819"/>
<ellipse cx="259.311" cy="87.5" rx="2.86757" ry="3.5" fill="#CAD819"/>
<ellipse cx="259.311" cy="108.5" rx="2.86757" ry="3.5" fill="#CAD819"/>
<ellipse cx="259.311" cy="129.5" rx="2.86757" ry="3.5" fill="#CAD819"/>
<ellipse cx="259.311" cy="150.5" rx="2.86757" ry="3.5" fill="#CAD819"/>
<ellipse cx="276.516" cy="3.5" rx="2.86757" ry="3.5" fill="#CAD819"/>
<ellipse cx="276.516" cy="24.5" rx="2.86757" ry="3.5" fill="#CAD819"/>
<ellipse cx="276.516" cy="45.5" rx="2.86757" ry="3.5" fill="#CAD819"/>
<ellipse cx="276.516" cy="66.5" rx="2.86757" ry="3.5" fill="#CAD819"/>
<ellipse cx="276.516" cy="87.5" rx="2.86757" ry="3.5" fill="#CAD819"/>
<ellipse cx="276.516" cy="108.5" rx="2.86757" ry="3.5" fill="#CAD819"/>
<ellipse cx="276.516" cy="129.5" rx="2.86757" ry="3.5" fill="#CAD819"/>
<ellipse cx="276.516" cy="150.5" rx="2.86757" ry="3.5" fill="#CAD819"/>
<ellipse cx="293.722" cy="3.5" rx="2.86757" ry="3.5" fill="#CAD819"/>
<ellipse cx="293.722" cy="24.5" rx="2.86757" ry="3.5" fill="#CAD819"/>
<ellipse cx="293.722" cy="45.5" rx="2.86757" ry="3.5" fill="#CAD819"/>
<ellipse cx="293.722" cy="66.5" rx="2.86757" ry="3.5" fill="#CAD819"/>
<ellipse cx="293.722" cy="87.5" rx="2.86757" ry="3.5" fill="#CAD819"/>
<ellipse cx="293.722" cy="108.5" rx="2.86757" ry="3.5" fill="#CAD819"/>
<ellipse cx="293.722" cy="129.5" rx="2.86757" ry="3.5" fill="#CAD819"/>
<ellipse cx="293.722" cy="150.5" rx="2.86757" ry="3.5" fill="#CAD819"/>
<ellipse cx="310.927" cy="3.5" rx="2.86757" ry="3.5" fill="#CAD819"/>
<ellipse cx="310.927" cy="24.5" rx="2.86757" ry="3.5" fill="#CAD819"/>
<ellipse cx="310.927" cy="45.5" rx="2.86757" ry="3.5" fill="#CAD819"/>
<ellipse cx="310.927" cy="66.5" rx="2.86757" ry="3.5" fill="#CAD819"/>
<ellipse cx="310.927" cy="87.5" rx="2.86757" ry="3.5" fill="#CAD819"/>
<ellipse cx="310.927" cy="108.5" rx="2.86757" ry="3.5" fill="#CAD819"/>
<ellipse cx="310.927" cy="129.5" rx="2.86757" ry="3.5" fill="#CAD819"/>
<ellipse cx="310.927" cy="150.5" rx="2.86757" ry="3.5" fill="#CAD819"/>
<ellipse cx="328.132" cy="3.5" rx="2.86757" ry="3.5" fill="#CAD819"/>
<ellipse cx="328.132" cy="24.5" rx="2.86757" ry="3.5" fill="#CAD819"/>
<ellipse cx="328.132" cy="45.5" rx="2.86757" ry="3.5" fill="#CAD819"/>
<ellipse cx="328.132" cy="66.5" rx="2.86757" ry="3.5" fill="#CAD819"/>
<ellipse cx="328.132" cy="87.5" rx="2.86757" ry="3.5" fill="#CAD819"/>
<ellipse cx="328.132" cy="108.5" rx="2.86757" ry="3.5" fill="#CAD819"/>
<ellipse cx="328.132" cy="129.5" rx="2.86757" ry="3.5" fill="#CAD819"/>
<ellipse cx="328.132" cy="150.5" rx="2.86757" ry="3.5" fill="#CAD819"/>
<ellipse cx="2.86759" cy="3.5" rx="2.86757" ry="3.5" fill="#CAD819"/>
<ellipse cx="2.86759" cy="24.5" rx="2.86757" ry="3.5" fill="#CAD819"/>
<ellipse cx="2.86759" cy="45.5" rx="2.86757" ry="3.5" fill="#CAD819"/>
<ellipse cx="2.86759" cy="66.5" rx="2.86757" ry="3.5" fill="#CAD819"/>
<ellipse cx="2.86759" cy="87.5" rx="2.86757" ry="3.5" fill="#CAD819"/>
<ellipse cx="2.86759" cy="108.5" rx="2.86757" ry="3.5" fill="#CAD819"/>
<ellipse cx="2.86759" cy="129.5" rx="2.86757" ry="3.5" fill="#CAD819"/>
<ellipse cx="2.86759" cy="150.5" rx="2.86757" ry="3.5" fill="#CAD819"/>
<ellipse cx="20.073" cy="3.5" rx="2.86757" ry="3.5" fill="#CAD819"/>
<ellipse cx="20.073" cy="24.5" rx="2.86757" ry="3.5" fill="#CAD819"/>
<ellipse cx="20.073" cy="45.5" rx="2.86757" ry="3.5" fill="#CAD819"/>
<ellipse cx="20.073" cy="66.5" rx="2.86757" ry="3.5" fill="#CAD819"/>
<ellipse cx="20.073" cy="87.5" rx="2.86757" ry="3.5" fill="#CAD819"/>
<ellipse cx="20.073" cy="108.5" rx="2.86757" ry="3.5" fill="#CAD819"/>
<ellipse cx="20.073" cy="129.5" rx="2.86757" ry="3.5" fill="#CAD819"/>
<ellipse cx="20.073" cy="150.5" rx="2.86757" ry="3.5" fill="#CAD819"/>
<ellipse cx="37.2785" cy="3.5" rx="2.86757" ry="3.5" fill="#CAD819"/>
<ellipse cx="37.2785" cy="24.5" rx="2.86757" ry="3.5" fill="#CAD819"/>
<ellipse cx="37.2785" cy="45.5" rx="2.86757" ry="3.5" fill="#CAD819"/>
<ellipse cx="37.2785" cy="66.5" rx="2.86757" ry="3.5" fill="#CAD819"/>
<ellipse cx="37.2785" cy="87.5" rx="2.86757" ry="3.5" fill="#CAD819"/>
<ellipse cx="37.2785" cy="108.5" rx="2.86757" ry="3.5" fill="#CAD819"/>
<ellipse cx="37.2785" cy="129.5" rx="2.86757" ry="3.5" fill="#CAD819"/>
<ellipse cx="37.2785" cy="150.5" rx="2.86757" ry="3.5" fill="#CAD819"/>
<ellipse cx="54.4839" cy="3.5" rx="2.86757" ry="3.5" fill="#CAD819"/>
<ellipse cx="54.4839" cy="24.5" rx="2.86757" ry="3.5" fill="#CAD819"/>
<ellipse cx="54.4839" cy="45.5" rx="2.86757" ry="3.5" fill="#CAD819"/>
<ellipse cx="54.4839" cy="66.5" rx="2.86757" ry="3.5" fill="#CAD819"/>
<ellipse cx="54.4839" cy="87.5" rx="2.86757" ry="3.5" fill="#CAD819"/>
<ellipse cx="54.4839" cy="108.5" rx="2.86757" ry="3.5" fill="#CAD819"/>
<ellipse cx="54.4839" cy="129.5" rx="2.86757" ry="3.5" fill="#CAD819"/>
<ellipse cx="54.4839" cy="150.5" rx="2.86757" ry="3.5" fill="#CAD819"/>
<ellipse cx="71.6893" cy="3.5" rx="2.86757" ry="3.5" fill="#CAD819"/>
<ellipse cx="71.6893" cy="24.5" rx="2.86757" ry="3.5" fill="#CAD819"/>
<ellipse cx="71.6893" cy="45.5" rx="2.86757" ry="3.5" fill="#CAD819"/>
<ellipse cx="71.6893" cy="66.5" rx="2.86757" ry="3.5" fill="#CAD819"/>
<ellipse cx="71.6893" cy="87.5" rx="2.86757" ry="3.5" fill="#CAD819"/>
<ellipse cx="71.6893" cy="108.5" rx="2.86757" ry="3.5" fill="#CAD819"/>
<ellipse cx="71.6893" cy="129.5" rx="2.86757" ry="3.5" fill="#CAD819"/>
<ellipse cx="71.6893" cy="150.5" rx="2.86757" ry="3.5" fill="#CAD819"/>
<ellipse cx="88.8949" cy="3.5" rx="2.86757" ry="3.5" fill="#CAD819"/>
<ellipse cx="88.8949" cy="24.5" rx="2.86757" ry="3.5" fill="#CAD819"/>
<ellipse cx="88.8949" cy="45.5" rx="2.86757" ry="3.5" fill="#CAD819"/>
<ellipse cx="88.8949" cy="66.5" rx="2.86757" ry="3.5" fill="#CAD819"/>
<ellipse cx="88.8949" cy="87.5" rx="2.86757" ry="3.5" fill="#CAD819"/>
<ellipse cx="88.8949" cy="108.5" rx="2.86757" ry="3.5" fill="#CAD819"/>
<ellipse cx="88.8949" cy="129.5" rx="2.86757" ry="3.5" fill="#CAD819"/>
<ellipse cx="88.8949" cy="150.5" rx="2.86757" ry="3.5" fill="#CAD819"/>
<ellipse cx="106.1" cy="3.5" rx="2.86757" ry="3.5" fill="#CAD819"/>
<ellipse cx="106.1" cy="24.5" rx="2.86757" ry="3.5" fill="#CAD819"/>
<ellipse cx="106.1" cy="45.5" rx="2.86757" ry="3.5" fill="#CAD819"/>
<ellipse cx="106.1" cy="66.5" rx="2.86757" ry="3.5" fill="#CAD819"/>
<ellipse cx="106.1" cy="87.5" rx="2.86757" ry="3.5" fill="#CAD819"/>
<ellipse cx="106.1" cy="108.5" rx="2.86757" ry="3.5" fill="#CAD819"/>
<ellipse cx="106.1" cy="129.5" rx="2.86757" ry="3.5" fill="#CAD819"/>
<ellipse cx="106.1" cy="150.5" rx="2.86757" ry="3.5" fill="#CAD819"/>
<ellipse cx="123.306" cy="3.5" rx="2.86757" ry="3.5" fill="#CAD819"/>
<ellipse cx="123.306" cy="24.5" rx="2.86757" ry="3.5" fill="#CAD819"/>
<ellipse cx="123.306" cy="45.5" rx="2.86757" ry="3.5" fill="#CAD819"/>
<ellipse cx="123.306" cy="66.5" rx="2.86757" ry="3.5" fill="#CAD819"/>
<ellipse cx="123.306" cy="87.5" rx="2.86757" ry="3.5" fill="#CAD819"/>
<ellipse cx="123.306" cy="108.5" rx="2.86757" ry="3.5" fill="#CAD819"/>
<ellipse cx="123.306" cy="129.5" rx="2.86757" ry="3.5" fill="#CAD819"/>
<ellipse cx="123.306" cy="150.5" rx="2.86757" ry="3.5" fill="#CAD819"/>
<ellipse cx="140.511" cy="3.5" rx="2.86757" ry="3.5" fill="#CAD819"/>
<ellipse cx="140.511" cy="24.5" rx="2.86757" ry="3.5" fill="#CAD819"/>
<ellipse cx="140.511" cy="45.5" rx="2.86757" ry="3.5" fill="#CAD819"/>
<ellipse cx="140.511" cy="66.5" rx="2.86757" ry="3.5" fill="#CAD819"/>
<ellipse cx="140.511" cy="87.5" rx="2.86757" ry="3.5" fill="#CAD819"/>
<ellipse cx="140.511" cy="108.5" rx="2.86757" ry="3.5" fill="#CAD819"/>
<ellipse cx="140.511" cy="129.5" rx="2.86757" ry="3.5" fill="#CAD819"/>
<ellipse cx="140.511" cy="150.5" rx="2.86757" ry="3.5" fill="#CAD819"/>
<ellipse cx="157.717" cy="3.5" rx="2.86757" ry="3.5" fill="#CAD819"/>
<ellipse cx="157.717" cy="24.5" rx="2.86757" ry="3.5" fill="#CAD819"/>
<ellipse cx="157.717" cy="45.5" rx="2.86757" ry="3.5" fill="#CAD819"/>
<ellipse cx="157.717" cy="66.5" rx="2.86757" ry="3.5" fill="#CAD819"/>
<ellipse cx="157.717" cy="87.5" rx="2.86757" ry="3.5" fill="#CAD819"/>
<ellipse cx="157.717" cy="108.5" rx="2.86757" ry="3.5" fill="#CAD819"/>
<ellipse cx="157.717" cy="129.5" rx="2.86757" ry="3.5" fill="#CAD819"/>
<ellipse cx="157.717" cy="150.5" rx="2.86757" ry="3.5" fill="#CAD819"/>
</svg>
