<svg width="167" height="53" viewBox="0 0 167 53" fill="none" xmlns="http://www.w3.org/2000/svg">
<g clip-path="url(#clip0_401_3301)">
<path d="M87.7013 13.1006C87.7013 14.9796 86.1937 16.4932 84.3222 16.4932C82.4506 16.4932 80.943 14.9796 80.943 13.1006C80.943 11.2216 82.3987 9.70803 84.3222 9.70803C86.2457 9.76022 87.7013 11.2738 87.7013 13.1006ZM73.7689 19.938C73.7689 20.2512 73.7689 20.7731 73.7689 20.7731C73.7689 20.7731 72.1573 18.6853 68.7262 18.6853C63.0597 18.6853 58.6408 23.0174 58.6408 29.0197C58.6408 34.9698 63.0077 39.354 68.7262 39.354C72.2093 39.354 73.7689 37.2141 73.7689 37.2141V38.1014C73.7689 38.5189 74.0808 38.8321 74.4967 38.8321H78.7076V19.2073C78.7076 19.2073 74.8606 19.2073 74.4967 19.2073C74.0808 19.2073 73.7689 19.5726 73.7689 19.938ZM73.7689 32.5167C72.9891 33.6649 71.4295 34.6566 69.558 34.6566C66.2308 34.6566 63.6835 32.5689 63.6835 29.0197C63.6835 25.4705 66.2308 23.3828 69.558 23.3828C71.3775 23.3828 73.0411 24.4266 73.7689 25.5227V32.5167ZM81.8268 19.2073H86.8175V38.8321H81.8268V19.2073ZM156.376 18.6853C152.944 18.6853 151.333 20.7731 151.333 20.7731V9.76022H146.342V38.8321C146.342 38.8321 150.189 38.8321 150.553 38.8321C150.969 38.8321 151.281 38.4667 151.281 38.1014V37.2141C151.281 37.2141 152.892 39.354 156.324 39.354C161.99 39.354 166.409 34.9698 166.409 29.0197C166.409 23.0696 161.99 18.6853 156.376 18.6853ZM155.544 34.6044C153.62 34.6044 152.113 33.6127 151.333 32.4645V25.4705C152.113 24.4266 153.776 23.3306 155.544 23.3306C158.871 23.3306 161.418 25.4183 161.418 28.9675C161.418 32.5167 158.871 34.6044 155.544 34.6044ZM143.743 27.1929V38.8843H138.752V27.767C138.752 24.531 137.712 23.2262 134.905 23.2262C133.397 23.2262 131.838 24.0091 130.85 25.1574V38.8321H125.859V19.2073H129.81C130.226 19.2073 130.538 19.5726 130.538 19.938V20.7731C131.994 19.2595 133.917 18.6853 135.841 18.6853C138.024 18.6853 139.844 19.3117 141.299 20.5643C143.067 22.0257 143.743 23.9047 143.743 27.1929ZM113.747 18.6853C110.315 18.6853 108.704 20.7731 108.704 20.7731V9.76022H103.713V38.8321C103.713 38.8321 107.56 38.8321 107.924 38.8321C108.34 38.8321 108.652 38.4667 108.652 38.1014V37.2141C108.652 37.2141 110.263 39.354 113.695 39.354C119.361 39.354 123.78 34.9698 123.78 29.0197C123.832 23.0696 119.413 18.6853 113.747 18.6853ZM112.915 34.6044C110.991 34.6044 109.484 33.6127 108.704 32.4645V25.4705C109.484 24.4266 111.147 23.3306 112.915 23.3306C116.242 23.3306 118.789 25.4183 118.789 28.9675C118.789 32.5167 116.242 34.6044 112.915 34.6044ZM99.3983 18.6853C100.906 18.6853 101.686 18.9463 101.686 18.9463V23.5915C101.686 23.5915 97.5268 22.1823 94.9274 25.1574V38.8843H89.9367V19.2073C89.9367 19.2073 93.7837 19.2073 94.1476 19.2073C94.5635 19.2073 94.8754 19.5726 94.8754 19.938V20.7731C95.8112 19.677 97.8387 18.6853 99.3983 18.6853ZM47.5677 37.0575C47.3077 36.4312 47.0478 35.7527 46.7879 35.1785C46.372 34.2391 45.9561 33.3518 45.5922 32.5167L45.5402 32.4645C41.9531 24.6354 38.1061 16.702 34.0511 8.87293L33.8952 8.55976C33.4793 7.77686 33.0634 6.94176 32.6475 6.10666C32.1276 5.16718 31.6078 4.1755 30.776 3.23601C29.1124 1.14826 26.721 0 24.1737 0C21.5744 0 19.235 1.14826 17.5194 3.13162C16.7396 4.07111 16.1678 5.06279 15.6479 6.00227C15.232 6.83737 14.8161 7.67247 14.4002 8.45538L14.2443 8.76854C10.2413 16.5976 6.3423 24.531 2.75523 32.3601L2.70324 32.4645C2.33933 33.2996 1.92344 34.1869 1.50755 35.1264C1.24762 35.7005 0.987683 36.3268 0.72775 37.0053C0.0519243 38.9365 -0.156022 40.7633 0.103911 42.6422C0.675763 46.5568 3.27509 49.845 6.86217 51.3064C8.21382 51.8805 9.61745 52.1415 11.0731 52.1415C11.489 52.1415 12.0088 52.0893 12.4247 52.0371C14.1403 51.8283 15.9078 51.2542 17.6234 50.2625C19.7548 49.0621 21.7823 47.3397 24.0697 44.8344C26.3571 47.3397 28.4366 49.0621 30.5161 50.2625C32.2316 51.2542 33.9992 51.8283 35.7147 52.0371C36.1306 52.0893 36.6505 52.1415 37.0664 52.1415C38.522 52.1415 39.9776 51.8805 41.2773 51.3064C44.9163 49.845 47.4637 46.5046 48.0355 42.6422C48.4514 40.8155 48.2435 38.9887 47.5677 37.0575ZM24.1217 39.7716C21.3144 36.2224 19.4949 32.882 18.8711 30.0636C18.6111 28.8631 18.5591 27.8192 18.7151 26.8797C18.8191 26.0447 19.131 25.3139 19.5469 24.6876C20.5346 23.2784 22.1982 22.3911 24.1217 22.3911C26.0452 22.3911 27.7608 23.2262 28.6965 24.6876C29.1124 25.3139 29.4243 26.0447 29.5283 26.8797C29.6843 27.8192 29.6323 28.9153 29.3724 30.0636C28.7485 32.8298 26.929 36.1702 24.1217 39.7716ZM44.8644 42.2247C44.5004 44.9388 42.6809 47.2875 40.1336 48.3314C38.8859 48.8533 37.5342 49.0099 36.1826 48.8533C34.8829 48.6967 33.5833 48.2792 32.2316 47.4963C30.3601 46.4524 28.4886 44.8344 26.3051 42.4335C29.7363 38.2058 31.8157 34.3434 32.5955 30.8987C32.9594 29.2807 33.0114 27.8192 32.8555 26.4622C32.6475 25.1574 32.1796 23.9569 31.4518 22.913C29.8402 20.5643 27.1369 19.2073 24.1217 19.2073C21.1065 19.2073 18.4032 20.6165 16.7916 22.913C16.0638 23.9569 15.5959 25.1574 15.388 26.4622C15.18 27.8192 15.232 29.3329 15.6479 30.8987C16.4277 34.3434 18.5591 38.258 21.9383 42.4857C19.8068 44.8866 17.8833 46.5046 16.0118 47.5485C14.6602 48.3314 13.3605 48.7489 12.0608 48.9055C10.6572 49.0621 9.30553 48.8533 8.10984 48.3835C5.5625 47.3397 3.74297 44.991 3.37907 42.2769C3.22311 40.972 3.32708 39.6672 3.84694 38.2058C4.0029 37.6838 4.26284 37.1619 4.52277 36.5356C4.88668 35.7005 5.30257 34.8132 5.71846 33.9259L5.77045 33.8215C9.35752 26.0447 13.2045 18.1112 17.2075 10.3865L17.3635 10.0734C17.7793 9.29048 18.1952 8.45538 18.6111 7.67247C19.027 6.83737 19.4949 6.05447 20.0668 5.37595C21.1585 4.1233 22.6141 3.44478 24.2257 3.44478C25.8373 3.44478 27.2929 4.1233 28.3846 5.37595C28.9565 6.05447 29.4243 6.83737 29.8402 7.67247C30.2561 8.45538 30.672 9.29048 31.0879 10.0734L31.2439 10.3865C35.1949 18.1634 39.0419 26.0968 42.6289 33.8737V33.9259C43.0448 34.761 43.4087 35.7005 43.8246 36.5356C44.0846 37.1619 44.3445 37.6838 44.5004 38.2058C44.9163 39.5628 45.0723 40.8677 44.8644 42.2247Z" fill="#FF5A5F"/>
</g>
<defs>
<clipPath id="clip0_401_3301">
<rect width="166.409" height="52.1415" fill="white"/>
</clipPath>
</defs>
</svg>
