<svg width="142" height="43" viewBox="0 0 142 43" fill="none" xmlns="http://www.w3.org/2000/svg">
<g clip-path="url(#clip0_401_3306)">
<path fill-rule="evenodd" clip-rule="evenodd" d="M87.8128 33.3188C79.5873 39.3745 67.6649 42.6055 57.4 42.6055C43.0069 42.6055 30.0494 37.2882 20.2466 28.4447C19.4764 27.7492 20.1665 26.8015 21.0907 27.3431C31.6699 33.4911 44.7506 37.1898 58.2626 37.1898C67.3753 37.1898 77.4 35.3066 86.6175 31.3987C88.01 30.8079 89.1745 32.3095 87.8128 33.3188Z" fill="#FF9900"/>
<path fill-rule="evenodd" clip-rule="evenodd" d="M91.2322 29.4109C90.1847 28.0693 84.2821 28.777 81.6327 29.0909C80.8256 29.1894 80.7023 28.4878 81.4294 27.9832C86.1305 24.6784 93.8446 25.6323 94.7442 26.74C95.6437 27.8539 94.51 35.5774 90.0923 39.2638C89.4146 39.83 88.7676 39.5284 89.0695 38.7776C90.0615 36.3036 92.2858 30.7587 91.2322 29.4109Z" fill="#FF9900"/>
<path fill-rule="evenodd" clip-rule="evenodd" d="M81.8175 4.65259V1.4401C81.8175 0.953918 82.1872 0.627747 82.6308 0.627747H97.0301C97.4922 0.627747 97.8619 0.960073 97.8619 1.4401V4.19102C97.8557 4.65259 97.4675 5.2557 96.7775 6.2096L89.316 16.8502C92.0886 16.7825 95.0153 17.1948 97.5292 18.6103C98.096 18.9303 98.25 19.398 98.2932 19.8596V23.2875C98.2932 23.7552 97.7756 24.3029 97.2334 24.0198C92.8033 21.6997 86.9192 21.4474 82.0208 24.0444C81.5218 24.3152 80.998 23.7737 80.998 23.3059V20.0504C80.998 19.5273 81.0042 18.6349 81.5279 17.841L90.1724 5.45879H82.6493C82.1872 5.45879 81.8175 5.13262 81.8175 4.65259Z" fill="black"/>
<path fill-rule="evenodd" clip-rule="evenodd" d="M29.2912 24.6968H24.9104C24.4915 24.666 24.1587 24.3522 24.1279 23.9522V1.49553C24.1279 1.04627 24.5038 0.689328 24.972 0.689328H29.0571C29.4822 0.707778 29.8211 1.03396 29.8519 1.44014V4.37569H29.932C30.9979 1.5386 33.0004 0.215454 35.6991 0.215454C38.4409 0.215454 40.1538 1.5386 41.3861 4.37569C42.4459 1.5386 44.855 0.215454 47.4366 0.215454C49.2727 0.215454 51.2814 0.972419 52.5075 2.67098C53.8938 4.56031 53.6104 7.30508 53.6104 9.71137L53.6042 23.8845C53.6042 24.3337 53.2284 24.6968 52.7601 24.6968H48.3855C47.948 24.666 47.5968 24.3153 47.5968 23.8845V11.9823C47.5968 11.0345 47.6831 8.67131 47.4736 7.7728C47.147 6.26503 46.1674 5.84038 44.8981 5.84038C43.8383 5.84038 42.7293 6.54811 42.2795 7.68049C41.8297 8.81286 41.8729 10.7083 41.8729 11.9823V23.8845C41.8729 24.3337 41.497 24.6968 41.0287 24.6968H36.6541C36.2105 24.666 35.8655 24.3153 35.8655 23.8845L35.8593 11.9823C35.8593 9.47751 36.2721 5.79115 33.1606 5.79115C30.0121 5.79115 30.1353 9.38519 30.1353 11.9823V23.8845C30.1353 24.3337 29.7595 24.6968 29.2912 24.6968" fill="black"/>
<path fill-rule="evenodd" clip-rule="evenodd" d="M110.259 0.215454C116.759 0.215454 120.277 5.79115 120.277 12.8808C120.277 19.7304 116.389 25.1645 110.259 25.1645C103.875 25.1645 100.4 19.5888 100.4 12.6408C100.4 5.6496 103.919 0.215454 110.259 0.215454ZM110.296 4.80033C107.067 4.80033 106.864 9.19441 106.864 11.933C106.864 14.6778 106.821 20.5366 110.259 20.5366C113.654 20.5366 113.814 15.8102 113.814 12.93C113.814 11.0345 113.734 8.76978 113.161 6.97275C112.668 5.40959 111.688 4.80033 110.296 4.80033Z" fill="black"/>
<path fill-rule="evenodd" clip-rule="evenodd" d="M128.706 24.6968H124.344C123.906 24.666 123.555 24.3153 123.555 23.8845L123.549 1.42168C123.586 1.00934 123.949 0.689328 124.393 0.689328H128.453C128.835 0.707778 129.15 0.966267 129.236 1.31706V4.75109H129.316C130.542 1.68015 132.261 0.215454 135.286 0.215454C137.252 0.215454 139.168 0.923187 140.4 2.86176C141.546 4.65878 141.546 7.68049 141.546 9.85291V23.9891C141.497 24.383 141.134 24.6968 140.702 24.6968H136.309C135.909 24.666 135.576 24.3706 135.533 23.9891V11.7915C135.533 9.33596 135.816 5.74191 132.791 5.74191C131.725 5.74191 130.745 6.4558 130.259 7.53894C129.642 8.91133 129.562 10.2776 129.562 11.7915V23.8845C129.556 24.3337 129.174 24.6968 128.706 24.6968" fill="black"/>
<path fill-rule="evenodd" clip-rule="evenodd" d="M70.3389 13.9701C70.3389 15.6748 70.382 17.0964 69.5194 18.6103C68.8231 19.8412 67.7141 20.5981 66.488 20.5981C64.8059 20.5981 63.8201 19.3181 63.8201 17.4287C63.8201 13.6993 67.1657 13.0223 70.3389 13.0223V13.9701ZM74.7566 24.6353C74.467 24.8938 74.048 24.9122 73.7215 24.7399C72.2674 23.5337 72.0024 22.9737 71.2076 21.8228C68.8047 24.2722 67.0979 25.0045 63.9864 25.0045C60.2957 25.0045 57.4307 22.7336 57.4307 18.1857C57.4307 14.6347 59.353 12.2161 62.101 11.0345C64.4793 9.98831 67.8003 9.80369 70.3389 9.51445V8.94826C70.3389 7.9082 70.419 6.67736 69.8028 5.77885C69.2729 4.97265 68.2501 4.64032 67.3444 4.64032C65.6747 4.64032 64.1898 5.49575 63.8262 7.26816C63.7523 7.66203 63.4627 8.04975 63.0622 8.06821L58.817 7.6128C58.4596 7.5328 58.0591 7.24354 58.1639 6.69583C59.1374 1.55092 63.7954 6.10352e-05 67.9605 6.10352e-05C70.0924 6.10352e-05 72.8774 0.566248 74.5594 2.17864C76.6913 4.16645 76.488 6.81891 76.488 9.70522V16.5241C76.488 18.5734 77.3382 19.4719 78.1392 20.5797C78.4165 20.9735 78.4781 21.4474 78.1207 21.7428C77.2273 22.4875 75.6377 23.8722 74.7627 24.6476L74.7566 24.6353" fill="black"/>
<path fill-rule="evenodd" clip-rule="evenodd" d="M12.9082 13.9701C12.9082 15.6748 12.9513 17.0964 12.0887 18.6103C11.3925 19.8412 10.2896 20.5981 9.0573 20.5981C7.37523 20.5981 6.39556 19.3181 6.39556 17.4287C6.39556 13.6993 9.74122 13.0223 12.9082 13.0223V13.9701ZM17.3259 24.6353C17.0364 24.8938 16.6174 24.9122 16.2908 24.7399C14.8367 23.5337 14.5779 22.9737 13.777 21.8228C11.374 24.2722 9.67345 25.0045 6.55576 25.0045C2.87122 25.0045 0 22.7336 0 18.1857C0 14.6347 1.92853 12.2161 4.67036 11.0345C7.04867 9.98831 10.3697 9.80369 12.9082 9.51445V8.94826C12.9082 7.9082 12.9883 6.67736 12.3783 5.77885C11.8423 4.97265 10.8195 4.64032 9.9199 4.64032C8.25016 4.64032 6.75909 5.49575 6.39556 7.26816C6.32162 7.66203 6.03204 8.04975 5.63771 8.06821L1.38632 7.6128C1.02896 7.5328 0.634626 7.24354 0.733209 6.69583C1.71288 1.55092 6.36475 6.10352e-05 10.5299 6.10352e-05C12.6617 6.10352e-05 15.4467 0.566248 17.1288 2.17864C19.2606 4.16645 19.0573 6.81891 19.0573 9.70522V16.5241C19.0573 18.5734 19.9076 19.4719 20.7086 20.5797C20.992 20.9735 21.0536 21.4474 20.6962 21.7428C19.8028 22.4875 18.2132 23.8722 17.3383 24.6476L17.3259 24.6353" fill="black"/>
</g>
<defs>
<clipPath id="clip0_401_3306">
<rect width="141.547" height="42.6055" fill="white"/>
</clipPath>
</defs>
</svg>
