<svg width="100%" height="100%" viewBox="0 0 25 25" fill="none" xmlns="http://www.w3.org/2000/svg">
<path d="M12.1888 13.4941C12.0587 13.4941 11.9287 13.4641 11.8086 13.394L2.97272 8.28065C2.61248 8.07051 2.49238 7.61017 2.70252 7.24994C2.91266 6.8897 3.36295 6.7696 3.7332 6.97974L12.1888 11.873L20.5943 7.00979C20.9545 6.79965 21.4148 6.92976 21.6249 7.27999C21.8351 7.64022 21.7051 8.1005 21.3549 8.31064L12.5791 13.394C12.449 13.4541 12.3189 13.4941 12.1888 13.4941Z" fill="#7BCC64"/>
<path d="M12.1895 22.5602C11.7792 22.5602 11.439 22.22 11.439 21.8098V12.7338C11.439 12.3235 11.7792 11.9833 12.1895 11.9833C12.5997 11.9833 12.94 12.3235 12.94 12.7338V21.8098C12.94 22.22 12.5997 22.5602 12.1895 22.5602Z" fill="#7BCC64"/>
<path d="M12.1884 22.9507C11.2778 22.9507 10.4072 22.7405 9.74674 22.3703L4.40322 19.4084C2.95227 18.6079 1.81152 16.6765 1.81152 15.0154V9.35172C1.81152 7.69062 2.95227 5.76941 4.40322 4.95887L9.74674 1.99689C11.1076 1.23639 13.2491 1.23639 14.62 1.99689L19.9635 4.95887C21.4144 5.7594 22.5552 7.69062 22.5552 9.35172V13.0141C22.5552 13.4244 22.215 13.7646 21.8047 13.7646C21.3944 13.7646 21.0542 13.4244 21.0542 13.0141V9.35172C21.0542 8.25099 20.2036 6.81009 19.243 6.27974L13.8995 3.31777C12.9889 2.80743 11.3978 2.80743 10.4872 3.31777L5.1437 6.27974C4.17306 6.8201 3.33252 8.25099 3.33252 9.35172V15.0154C3.33252 16.1162 4.18307 17.5572 5.1437 18.0876L10.4872 21.0494C11.3678 21.5397 13.0289 21.5397 13.8995 21.0494C14.2597 20.8493 14.72 20.9795 14.9202 21.3397C15.1203 21.6999 14.9902 22.1602 14.63 22.3603C13.9695 22.7405 13.099 22.9507 12.1884 22.9507Z" fill="#7BCC64"/>
<path d="M19.3945 22.35C17.2131 22.35 15.4419 20.5789 15.4419 18.3974C15.4419 16.216 17.2131 14.4448 19.3945 14.4448C21.5759 14.4448 23.3471 16.216 23.3471 18.3974C23.3471 20.5789 21.5759 22.35 19.3945 22.35ZM19.3945 15.9458C18.0436 15.9458 16.9429 17.0465 16.9429 18.3974C16.9429 19.7483 18.0436 20.849 19.3945 20.849C20.7454 20.849 21.8461 19.7483 21.8461 18.3974C21.8461 17.0465 20.7454 15.9458 19.3945 15.9458Z" fill="#7BCC64"/>
<path d="M23.1964 22.9504C23.0063 22.9504 22.8162 22.8804 22.6661 22.7303L21.6654 21.7296C21.3752 21.4394 21.3752 20.959 21.6654 20.6688C21.9556 20.3786 22.4359 20.3786 22.7261 20.6688L23.7268 21.6695C24.0169 21.9597 24.0169 22.4401 23.7268 22.7303C23.5767 22.8804 23.3865 22.9504 23.1964 22.9504Z" fill="#7BCC64"/>
</svg>
