<svg width="150" height="50" viewBox="0 0 150 50" fill="none" xmlns="http://www.w3.org/2000/svg">
<path d="M145.577 30.1005L149.752 32.8835C148.397 34.8792 145.156 38.303 139.554 38.303C132.596 38.303 127.415 32.9201 127.415 26.0724C127.415 18.7853 132.651 13.8418 138.968 13.8418C145.321 13.8418 148.434 18.8952 149.441 21.6233L149.99 23.0148L133.621 29.7892C134.866 32.2427 136.807 33.4877 139.554 33.4877C142.3 33.4877 144.204 32.1328 145.577 30.1005ZM132.743 25.6879L143.673 21.1472C143.069 19.6276 141.275 18.5473 139.132 18.5473C136.404 18.5473 132.614 20.9641 132.743 25.6879Z" fill="#FF302F"/>
<path d="M119.523 1.3732H124.796V37.1862H119.523V1.3732Z" fill="#20B15A"/>
<path d="M111.211 14.7939H116.301V36.5454C116.301 45.5718 110.973 49.2886 104.674 49.2886C98.742 49.2886 95.1717 45.2972 93.8351 42.0565L98.504 40.1157C99.3462 42.1114 101.379 44.4733 104.674 44.4733C108.721 44.4733 111.211 41.9649 111.211 37.2777V35.52H111.028C109.819 36.9848 107.512 38.303 104.583 38.303C98.4674 38.303 92.8647 32.975 92.8647 26.1091C92.8647 19.2064 98.4674 13.8235 104.583 13.8235C107.494 13.8235 109.819 15.1235 111.028 16.5516H111.211V14.7939ZM111.577 26.1091C111.577 21.7881 108.702 18.6389 105.04 18.6389C101.342 18.6389 98.2294 21.7881 98.2294 26.1091C98.2294 30.3751 101.342 33.4694 105.04 33.4694C108.702 33.4877 111.577 30.3751 111.577 26.1091Z" fill="#3686F7"/>
<path d="M63.9178 26.0175C63.9178 33.0666 58.425 38.2481 51.6872 38.2481C44.9493 38.2481 39.4565 33.0483 39.4565 26.0175C39.4565 18.9318 44.9493 13.7686 51.6872 13.7686C58.425 13.7686 63.9178 18.9318 63.9178 26.0175ZM58.5714 26.0175C58.5714 21.6233 55.3856 18.6022 51.6872 18.6022C47.9887 18.6022 44.8029 21.6233 44.8029 26.0175C44.8029 30.3751 47.9887 33.4328 51.6872 33.4328C55.3856 33.4328 58.5714 30.3751 58.5714 26.0175Z" fill="#FF302F"/>
<path d="M90.6311 26.0724C90.6311 33.1215 85.1383 38.303 78.4005 38.303C71.6627 38.303 66.1699 33.1215 66.1699 26.0724C66.1699 18.9867 71.6627 13.8418 78.4005 13.8418C85.1383 13.8418 90.6311 18.9684 90.6311 26.0724ZM85.2665 26.0724C85.2665 21.6782 82.0807 18.6572 78.3822 18.6572C74.6837 18.6572 71.4979 21.6782 71.4979 26.0724C71.4979 30.43 74.6837 33.4877 78.3822 33.4877C82.099 33.4877 85.2665 30.4117 85.2665 26.0724Z" fill="#FFBA40"/>
<path d="M19.3529 32.9384C11.6813 32.9384 5.67588 26.7499 5.67588 19.0783C5.67588 11.4067 11.6813 5.21815 19.3529 5.21815C23.4908 5.21815 26.5119 6.84768 28.7456 8.93494L32.4258 5.25477C29.3132 2.27035 25.157 0 19.3529 0C8.84339 0 0 8.56875 0 19.0783C0 29.5878 8.84339 38.1566 19.3529 38.1566C25.0288 38.1566 29.3132 36.289 32.6638 32.8103C36.1059 29.3681 37.1679 24.5345 37.1679 20.6163C37.1679 19.3895 37.0214 18.1262 36.8566 17.1924H19.3529V22.2824H31.8216C31.4554 25.4682 30.4484 27.647 28.9653 29.1301C27.171 30.9427 24.3331 32.9384 19.3529 32.9384Z" fill="#3686F7"/>
</svg>
